<svg width="122" height="59" viewBox="0 0 122 59" fill="none" xmlns="http://www.w3.org/2000/svg">
<path d="M2.52 48V15.6H5.6L14.8 37.12V15.6H18.56V48H15.68L6.36 25.88V48H2.52ZM23.6528 48V15.6H28.1728V44.76H36.4528V48H23.6528ZM39.5513 48V15.6H47.5912C49.5379 15.6 51.0846 15.96 52.2313 16.68C53.4046 17.3733 54.2579 18.3867 54.7913 19.72C55.3246 21.0533 55.5913 22.6667 55.5913 24.56C55.5913 26.2667 55.2846 27.7467 54.6713 29C54.0846 30.2533 53.2046 31.2267 52.0313 31.92C50.8579 32.5867 49.3913 32.92 47.6313 32.92H44.0713V48H39.5513ZM44.0713 29.68H46.1513C47.4579 29.68 48.4846 29.5333 49.2313 29.24C49.9779 28.9467 50.5113 28.44 50.8313 27.72C51.1513 26.9733 51.3113 25.9333 51.3113 24.6C51.3113 23.0533 51.1913 21.8667 50.9513 21.04C50.7379 20.2133 50.2713 19.64 49.5513 19.32C48.8313 19 47.7113 18.84 46.1913 18.84H44.0713V29.68Z" fill="white"/>
<path d="M98 12.4V12.42M98 21.4V21.42M98 29.4V29.42" stroke="white" stroke-width="3" stroke-miterlimit="10" stroke-linecap="round" stroke-linejoin="round"/>
<path d="M98 37.4V37.4196" stroke="white" stroke-width="2" stroke-miterlimit="10" stroke-linecap="round" stroke-linejoin="round"/>
<path d="M98 44.4V44.4196" stroke="white" stroke-width="1.5" stroke-miterlimit="10" stroke-linecap="round" stroke-linejoin="round"/>
<path d="M98 50.4V50.4196" stroke="white" stroke-miterlimit="10" stroke-linecap="round" stroke-linejoin="round"/>
<path d="M81 21.4V21.42M115 21.4V21.42" stroke="white" stroke-width="3" stroke-miterlimit="10" stroke-linecap="round" stroke-linejoin="round"/>
<path d="M115 29.4V29.42M81 29.4V29.42" stroke="white" stroke-width="2" stroke-miterlimit="10" stroke-linecap="round" stroke-linejoin="round"/>
<path d="M115 35.4V35.4196" stroke="white" stroke-width="1.5" stroke-miterlimit="10" stroke-linecap="round" stroke-linejoin="round"/>
<path d="M115 41.4V41.4196" stroke="white" stroke-miterlimit="10" stroke-linecap="round" stroke-linejoin="round"/>
<path d="M81 35.4V35.4196" stroke="white" stroke-width="1.5" stroke-miterlimit="10" stroke-linecap="round" stroke-linejoin="round"/>
<path d="M81 41.4V41.4196" stroke="white" stroke-miterlimit="10" stroke-linecap="round" stroke-linejoin="round"/>
<path d="M89.6 25.4V25.42M89.5 17V17.02M106.4 25.4V25.42M106.5 17V17.02" stroke="white" stroke-width="3" stroke-miterlimit="10" stroke-linecap="round" stroke-linejoin="round"/>
<path d="M89.6 33.4V33.4196" stroke="white" stroke-width="2" stroke-miterlimit="10" stroke-linecap="round" stroke-linejoin="round"/>
<path d="M89.6 39.4V39.4196" stroke="white" stroke-width="1.5" stroke-miterlimit="10" stroke-linecap="round" stroke-linejoin="round"/>
<path d="M89.6 45.4V45.4196" stroke="white" stroke-miterlimit="10" stroke-linecap="round" stroke-linejoin="round"/>
<path d="M106.4 33.4V33.4196" stroke="white" stroke-width="2" stroke-miterlimit="10" stroke-linecap="round" stroke-linejoin="round"/>
<path d="M106.4 39.4V39.4196" stroke="white" stroke-width="1.5" stroke-miterlimit="10" stroke-linecap="round" stroke-linejoin="round"/>
<path d="M106.4 45.4V45.4196" stroke="white" stroke-miterlimit="10" stroke-linecap="round" stroke-linejoin="round"/>
</svg>
